<svg width="169" height="52" viewBox="0 0 169 52" fill="none" xmlns="http://www.w3.org/2000/svg"><rect x="0.25" y="0.25" width="168.5" height="51.5" rx="9.75" stroke="black" stroke-width="0.5"></rect><path d="M39.959 18.1866C34.7162 21.6476 35.5593 28.9515 40.867 31.2206C40.5491 31.9834 40.3191 32.8012 39.8944 33.5003C38.9565 35.0438 37.9875 36.5782 36.9041 38.0206C35.9627 39.274 34.671 40.0456 33.0107 39.8661C32.4784 39.8087 31.9133 39.7151 31.4431 39.4788C29.1534 38.3285 26.906 38.3775 24.6082 39.4734C23.3933 40.0527 22.0669 40.2697 20.8831 39.4395C20.0648 38.8657 19.3043 38.1569 18.6687 37.3843C16.1221 34.2892 14.6058 30.7204 14.1289 26.7426C13.7753 23.7933 14.0852 20.9378 15.8655 18.4289C17.3449 16.3439 19.3873 15.1882 21.9417 14.9973C23.2234 14.9016 24.4241 15.3092 25.549 15.8508C26.939 16.5201 28.241 16.5364 29.645 15.8641C31.5325 14.9604 33.5222 14.6002 35.6061 15.1694C37.2267 15.612 38.5944 16.4364 39.6502 17.7552C39.7603 17.893 39.8561 18.0423 39.959 18.1866Z" fill="black"></path><path d="M71.9222 38.3007C71.9222 40.4904 71.9222 42.5508 71.9222 44.6428C70.9818 44.6428 70.087 44.6428 69.1136 44.6428C69.1136 38.8498 69.1136 33.0752 69.1136 27.2636C69.8625 27.2636 70.6484 27.2636 71.4742 27.2636C71.5324 27.8629 71.5894 28.4499 71.6427 28.9983C72.1759 28.5356 72.6563 27.9757 73.2578 27.6222C75.5868 26.253 78.4556 26.9806 79.9317 29.252C81.4281 31.5545 81.3446 35.4812 79.7521 37.7073C78.4018 39.5949 76.1185 40.3805 73.8917 39.7237C73.1796 39.5139 72.6675 39.1551 71.9222 38.3007ZM78.2908 33.4817C78.0937 32.6451 77.9882 31.868 77.7245 31.149C77.232 29.8056 76.1063 29.1225 74.7216 29.2082C73.4915 29.2844 72.2832 30.2476 72.0942 31.5734C71.9197 32.7975 71.8908 34.0703 72.0114 35.3007C72.137 36.5815 73.2438 37.5555 74.4056 37.7057C75.8326 37.8901 77.0418 37.2982 77.5934 35.9885C77.9309 35.1875 78.0698 34.3027 78.2908 33.4817Z" fill="black"></path><path d="M83.3762 27.254C84.119 27.254 84.8919 27.254 85.7153 27.254C85.772 27.8472 85.8283 28.435 85.8846 29.0227C85.9263 29.0606 85.968 29.0985 86.0098 29.1364C86.0454 29.0459 86.0653 28.9446 86.1189 28.8664C87.827 26.3694 92.316 26.0689 94.2757 29.4124C95.1055 30.8283 95.3228 32.3717 95.2178 33.9678C95.1003 35.7538 94.568 37.3881 93.1765 38.6165C91.589 40.0181 89.7512 40.2714 87.8074 39.5795C87.2083 39.3663 86.7161 38.8527 86.1695 38.4729C86.1695 40.4657 86.1695 42.5374 86.1695 44.6417C85.2294 44.6417 84.3489 44.6417 83.3764 44.6417C83.3762 38.8577 83.3762 33.0694 83.3762 27.254ZM86.0819 33.5552C86.0985 33.5584 86.1152 33.5618 86.1319 33.5651C86.1572 34.0894 86.1629 34.6156 86.2118 35.1376C86.3204 36.2967 87.1933 37.3074 88.3329 37.6258C89.5234 37.9585 90.8047 37.5765 91.4724 36.5873C92.6394 34.8579 92.6723 32.9866 91.9464 31.0934C91.4419 29.7775 90.3448 29.1284 88.9616 29.208C87.8016 29.2748 86.6671 30.1841 86.3576 31.4142C86.1833 32.1071 86.1685 32.8402 86.0819 33.5552Z" fill="black"></path><path d="M66.7653 39.6554C65.8439 39.6554 64.9748 39.6731 64.1077 39.6376C63.968 39.6318 63.7678 39.4122 63.7144 39.2519C63.2586 37.8816 62.8187 36.5056 62.4011 35.1232C62.2926 34.7637 62.1546 34.6049 61.7425 34.6128C60.2194 34.6422 58.6952 34.6411 57.1721 34.6134C56.7642 34.6059 56.6116 34.7552 56.506 35.1214C56.0749 36.615 55.6169 38.1007 55.1595 39.6203C54.2183 39.6203 53.2826 39.6203 52.2861 39.6203C52.403 39.2275 52.5109 38.8382 52.6344 38.4539C54.2934 33.2902 55.9587 28.1285 57.6073 22.9615C57.7367 22.556 57.9021 22.3738 58.3595 22.3992C59.1552 22.4433 59.9559 22.4339 60.7527 22.4017C61.1347 22.3862 61.2844 22.5278 61.3962 22.8776C62.7287 27.0454 64.0774 31.2081 65.4201 35.3727C65.8309 36.6468 66.2372 37.9224 66.6437 39.1979C66.6861 39.3313 66.7161 39.4688 66.7653 39.6554ZM57.2217 32.4431C58.7114 32.4431 60.1927 32.4431 61.6911 32.4431C60.9211 29.9266 60.1567 27.428 59.4155 25.0053C58.6978 27.4385 57.9605 29.9385 57.2217 32.4431Z" fill="black"></path><path d="M100.472 38.8203C100.681 38.0613 100.886 37.3178 101.109 36.5102C102.214 37.133 103.356 37.5256 104.578 37.544C105.274 37.5545 105.997 37.4982 106.665 37.3156C107.559 37.0711 108.169 36.4428 108.317 35.4848C108.474 34.475 108.203 33.584 107.328 33.0058C106.73 32.6108 106.048 32.3449 105.414 32.0028C104.4 31.4557 103.303 31.0107 102.402 30.314C100.163 28.5826 100.266 25.2753 102.433 23.4573C104.579 21.6574 108.886 21.9754 110.514 23.047C110.288 23.7688 110.057 24.5037 109.817 25.2726C108.564 24.624 107.276 24.4064 105.931 24.5221C104.367 24.6567 103.435 25.6878 103.599 27.0747C103.683 27.7847 104.087 28.2953 104.666 28.6311C105.382 29.0472 106.135 29.4082 106.896 29.7411C107.963 30.2087 109.01 30.7096 109.841 31.5458C112.03 33.7484 111.467 37.5046 108.736 39.0403C107.071 39.976 105.271 39.9861 103.451 39.8142C102.398 39.7147 101.395 39.4285 100.472 38.8203Z" fill="black"></path><path d="M121.763 33.4936C121.788 31.4045 122.392 29.5391 124.09 28.2233C126.054 26.7015 128.281 26.5635 130.508 27.4873C132.646 28.3737 133.698 30.1705 133.856 32.4236C133.931 33.4868 133.863 34.6091 133.599 35.6373C132.876 38.4475 130.272 40.1015 127.349 39.9377C123.848 39.7414 121.713 36.8873 121.763 33.4936ZM124.624 33.4863C124.598 34.5773 124.843 35.6766 125.534 36.642C126.709 38.2832 129.024 38.2795 130.115 36.5783C131.401 34.5738 131.42 32.458 130.246 30.4078C129.152 28.4987 126.573 28.5303 125.402 30.4011C124.826 31.3207 124.616 32.3343 124.624 33.4863Z" fill="black"></path><path d="M155.097 34.1102C152.314 34.1102 149.6 34.1102 146.892 34.1102C146.686 35.9653 148.214 37.6443 150.16 37.7147C150.809 37.7382 151.468 37.7307 152.111 37.6505C152.751 37.5708 153.377 37.3818 154.069 37.2275C154.192 37.756 154.346 38.307 154.428 38.8685C154.446 38.9879 154.226 39.2193 154.071 39.275C152.423 39.8666 150.727 40.0245 148.994 39.772C147.15 39.5031 145.763 38.559 144.875 36.9177C143.525 34.4255 144.023 30.6411 145.993 28.5994C147.62 26.9119 149.635 26.5612 151.792 27.2251C153.868 27.8637 154.771 29.543 155.077 31.5578C155.2 32.3672 155.097 33.2109 155.097 34.1102ZM152.448 32.0857C152.707 30.5592 151.665 29.0994 150.192 28.8931C148.509 28.6574 147.048 30.0539 146.876 32.0857C148.736 32.0857 150.594 32.0857 152.448 32.0857Z" fill="black"></path><path d="M114.517 29.3138C113.884 29.3138 113.325 29.3138 112.725 29.3138C112.725 28.6207 112.725 27.9591 112.725 27.2195C113.292 27.2195 113.878 27.2195 114.517 27.2195C114.517 26.5493 114.528 25.9552 114.512 25.362C114.504 25.0713 114.561 24.9172 114.889 24.8334C115.657 24.6376 116.408 24.3766 117.25 24.1161C117.25 24.6684 117.25 25.1494 117.25 25.6303C117.25 26.1192 117.25 26.6082 117.25 27.1793C118.251 27.1793 119.234 27.1793 120.244 27.1793C120.244 27.9237 120.244 28.5861 120.244 29.3033C119.262 29.3033 118.292 29.3033 117.298 29.3033C117.277 29.4748 117.25 29.5956 117.25 29.7165C117.247 31.6212 117.246 33.526 117.248 35.4307C117.248 35.5935 117.258 35.7577 117.28 35.9189C117.464 37.2775 118.123 37.7728 119.482 37.5793C119.656 37.5546 119.829 37.5234 120.042 37.4888C120.082 38.1273 120.129 38.7207 120.146 39.3152C120.15 39.4279 120.06 39.5981 119.963 39.6505C118.997 40.1755 116.564 39.8837 115.71 39.1655C114.795 38.3961 114.564 37.3297 114.538 36.2337C114.487 34.0943 114.519 31.953 114.516 29.8124C114.516 29.6703 114.517 29.5282 114.517 29.3138Z" fill="black"></path><path d="M142.867 27.0833C142.867 27.9062 142.867 28.7361 142.867 29.6292C142.526 29.6292 142.191 29.6286 141.855 29.6293C140.836 29.6318 140.035 30.0817 139.619 30.9873C139.332 31.6093 139.141 32.3268 139.119 33.0085C139.054 35.0008 139.095 36.9966 139.095 38.991C139.095 39.1871 139.095 39.3832 139.095 39.6177C138.156 39.6177 137.262 39.6177 136.287 39.6177C136.287 35.5028 136.287 31.3994 136.287 27.2593C137.025 27.2593 137.797 27.2593 138.628 27.2593C138.675 27.9589 138.722 28.668 138.772 29.4177C140.326 27.2577 141.449 26.619 142.867 27.0833Z" fill="black"></path><path d="M33.9328 7.00005C34.5346 10.7067 30.8411 14.974 27.4296 14.562C26.5995 11.4301 30.4083 6.98317 33.9328 7.00005Z" fill="black"></path><path d="M91.1637 15.5484C91.1323 15.8069 91.1051 16.032 91.074 16.2883C90.6948 16.2883 90.3257 16.2883 89.9389 16.2883C89.9389 13.3147 89.9389 10.3825 89.9389 7.39905C90.3988 7.39905 90.8387 7.39905 91.3172 7.39905C91.3172 8.56848 91.3172 9.72103 91.3172 10.8463C91.7447 10.6005 92.1282 10.2851 92.5676 10.1455C93.737 9.77374 94.9039 10.2821 95.4236 11.4149C96.0182 12.7105 95.9939 14.0325 95.2169 15.2558C94.2926 16.7109 92.5509 16.8638 91.3347 15.6447C91.3017 15.6113 91.2503 15.5961 91.1637 15.5484ZM91.3135 13.1459C91.3429 13.5334 91.3396 13.8265 91.3918 14.1095C91.514 14.7728 91.9711 15.2179 92.567 15.2927C93.2905 15.3834 93.8276 15.1203 94.1186 14.47C94.5012 13.615 94.509 12.7508 94.0534 11.9117C93.7655 11.3816 93.2949 11.121 92.7078 11.1741C92.0994 11.2292 91.6584 11.5862 91.4712 12.1712C91.3629 12.5101 91.3537 12.8807 91.3135 13.1459Z" fill="black"></path><path d="M60.3852 16.3174C59.995 16.3174 59.6143 16.3502 59.2446 16.3008C59.1029 16.2818 58.9242 16.0983 58.8692 15.9501C58.6619 15.391 58.487 14.8189 58.3237 14.2449C58.2441 13.9654 58.1322 13.8211 57.8051 13.8354C57.1538 13.8637 56.5 13.8562 55.848 13.8381C55.5647 13.8302 55.4295 13.9218 55.3568 14.2032C55.2168 14.7445 55.0143 15.2701 54.8814 15.8128C54.7897 16.1875 54.6314 16.3773 54.2184 16.325C53.9398 16.2898 53.6531 16.3183 53.2847 16.3183C53.5285 15.5474 53.7418 14.8644 53.9604 14.1833C54.5954 12.2052 55.2396 10.2299 55.8618 8.24781C55.9605 7.93343 56.1084 7.83368 56.433 7.83226C57.7148 7.82671 57.7182 7.81408 58.114 9.0421C58.8792 11.4163 59.6404 13.7919 60.4023 16.1673C60.4072 16.1825 60.399 16.2018 60.3852 16.3174ZM55.7481 12.7316C56.4802 12.7316 57.185 12.7316 57.9199 12.7316C57.5493 11.5409 57.1898 10.3862 56.8107 9.1682C56.4424 10.4034 56.0993 11.5536 55.7481 12.7316Z" fill="black"></path><path d="M140.957 16.3031C140.54 16.3031 140.129 16.3031 139.643 16.3031C139.643 15.4335 139.652 14.5886 139.64 13.7439C139.633 13.2562 139.628 12.7637 139.558 12.2826C139.441 11.4724 139.062 11.1871 138.268 11.2364C137.622 11.2764 137.155 11.7537 137.138 12.4576C137.112 13.5267 137.096 14.5974 137.13 15.6657C137.146 16.1772 137.017 16.4103 136.477 16.3351C136.25 16.3034 136.014 16.3299 135.738 16.3299C135.738 13.3298 135.738 10.3856 135.738 7.349C136.06 7.349 136.379 7.36185 136.697 7.34541C137.027 7.32831 137.143 7.46541 137.139 7.79254C137.125 8.78795 137.134 9.78369 137.134 10.799C137.482 10.5771 137.784 10.3125 138.136 10.1741C139.408 9.67306 140.793 10.4138 140.926 11.8087C141.065 13.2751 140.957 14.7652 140.957 16.3031Z" fill="black"></path><path d="M117.764 13.2316C117.752 15.1218 116.476 16.4642 114.695 16.4613C112.955 16.4585 111.713 15.1322 111.716 13.2814C111.72 11.3574 112.988 10.0328 114.82 10.0402C116.572 10.0473 117.777 11.3533 117.764 13.2316ZM116.383 13.4091C116.238 12.8168 116.195 12.3721 116.021 11.9868C115.581 11.0119 114.427 10.7997 113.743 11.5303C113.001 12.3236 112.98 14.0946 113.702 14.9135C114.268 15.5557 115.17 15.6178 115.68 14.9389C116.029 14.4736 116.183 13.8616 116.383 13.4091Z" fill="black"></path><path d="M143.909 13.6114C144.013 15.1897 145.082 15.6253 147.441 15.0961C147.507 15.4037 147.573 15.711 147.647 16.0598C146.503 16.4608 145.392 16.6275 144.273 16.1934C143.108 15.7417 142.648 14.7903 142.524 13.6052C142.355 11.9969 143.308 10.4687 144.74 10.1051C146.319 9.70412 147.719 10.6575 147.924 12.2746C148.094 13.6115 148.094 13.6115 146.765 13.6115C145.826 13.6114 144.887 13.6114 143.909 13.6114ZM143.911 12.535C144.83 12.535 145.711 12.535 146.59 12.535C146.636 11.723 146.224 11.1484 145.546 11.0497C144.724 10.9301 144.127 11.4578 143.911 12.535Z" fill="black"></path><path d="M102.47 13.6114C102.704 15.242 103.795 15.6821 105.989 15.0836C106.069 15.3857 106.148 15.6875 106.245 16.0545C104.903 16.5011 103.606 16.7086 102.356 15.9353C101.22 15.2332 100.801 13.6336 101.288 12.0811C101.692 10.7892 102.766 10.0075 104.095 10.0304C105.821 10.06 106.751 11.5935 106.537 13.3792C106.526 13.4732 106.243 13.5976 106.085 13.6009C105.088 13.6213 104.092 13.6113 103.095 13.6114C102.898 13.6114 102.702 13.6114 102.47 13.6114ZM105.219 12.5338C105.079 11.4494 104.662 10.999 103.858 11.0409C103.125 11.0792 102.566 11.7068 102.537 12.5338C103.43 12.5338 104.323 12.5338 105.219 12.5338Z" fill="black"></path><path d="M119.701 10.1925C120.899 10.0794 120.899 10.0794 120.949 10.892C121.32 10.6542 121.674 10.3395 122.087 10.1802C123.442 9.6577 124.824 10.4705 124.935 11.9422C125.042 13.3628 124.958 14.7978 124.958 16.2783C124.576 16.2783 124.137 16.2783 123.625 16.2783C123.625 15.4247 123.631 14.5785 123.622 13.7324C123.617 13.2624 123.62 12.7887 123.563 12.3236C123.469 11.5635 123.123 11.2405 122.473 11.2298C121.77 11.2184 121.218 11.6263 121.155 12.328C121.081 13.1561 121.107 13.9931 121.09 14.8262C121.087 15.0074 121.089 15.1888 121.089 15.3701C121.088 16.4233 121.087 16.4342 120.042 16.3146C119.912 16.2998 119.704 16.0977 119.702 15.9791C119.666 14.0944 119.657 12.2093 119.644 10.3242C119.644 10.2924 119.671 10.2604 119.701 10.1925Z" fill="black"></path><path d="M87.6253 16.2829C87.2757 16.2829 86.8858 16.2829 86.4838 16.2829C86.4445 16.0942 86.4085 15.9213 86.3813 15.7908C85.9207 16.0033 85.4955 16.2803 85.0301 16.3975C84.0498 16.6442 83.123 16.154 82.8018 15.3043C82.4438 14.3575 82.8018 13.3052 83.7466 12.8665C84.3231 12.599 84.9838 12.5089 85.6112 12.358C85.799 12.3128 86.0022 12.3314 86.1893 12.3212C86.4063 11.1205 85.0651 10.6465 83.4478 11.4539C82.9823 10.6875 83.0312 10.4622 83.8648 10.2606C84.4534 10.1183 85.0864 10.0396 85.6863 10.0902C86.9158 10.1938 87.6112 11.0268 87.6225 12.2895C87.6344 13.6088 87.6253 14.9281 87.6253 16.2829ZM86.2272 13.3164C85.9341 13.3164 85.6553 13.2462 85.4364 13.3312C84.9986 13.5011 84.502 13.6749 84.2096 14.006C84.0342 14.2046 84.1 14.7465 84.2343 15.0577C84.4189 15.4856 84.9014 15.4507 85.2929 15.3711C85.7655 15.2751 86.125 14.97 86.2139 14.4867C86.2809 14.1231 86.2272 13.7373 86.2272 13.3164Z" fill="black"></path><path d="M71.8316 12.3159C72.0672 11.1092 70.7282 10.6538 69.0989 11.4505C68.6331 10.6622 68.6754 10.471 69.532 10.2617C70.1036 10.1221 70.7163 10.0426 71.2999 10.0844C72.4936 10.17 73.2359 11.0086 73.2556 12.2179C73.2774 13.5564 73.2606 14.8956 73.2606 16.2766C72.9399 16.2766 72.5525 16.2766 72.1318 16.2766C72.0999 16.0899 72.0681 15.9027 72.056 15.8319C71.503 16.039 70.9595 16.3404 70.3821 16.4358C69.5081 16.5803 68.7353 16.052 68.447 15.2692C68.1425 14.4423 68.3878 13.4366 69.1629 13.0262C69.7992 12.6893 70.5478 12.5606 71.2524 12.3595C71.4375 12.3068 71.6436 12.3281 71.8316 12.3159ZM71.9859 13.1804C71.323 13.3337 70.7606 13.4137 70.2366 13.6011C69.8211 13.7496 69.6435 14.1656 69.747 14.582C69.8165 14.8619 70.0033 15.2132 70.2385 15.3314C70.8545 15.6411 71.6915 15.1991 71.8602 14.5094C71.9516 14.1356 71.9378 13.736 71.9859 13.1804Z" fill="black"></path><path d="M64.3283 14.815C64.7231 13.5672 65.0833 12.4389 65.4371 11.3085C65.8259 10.0665 65.8232 10.0657 67.2022 10.2166C67.1562 10.3754 67.1224 10.5285 67.0679 10.6738C66.4074 12.4307 65.734 14.1828 65.09 15.9457C64.969 16.2768 64.7705 16.3761 64.4786 16.3117C64.1452 16.2383 63.6883 16.5676 63.4912 16.0306C62.8065 14.1661 62.1236 12.3009 61.4431 10.4347C61.4199 10.3713 61.4296 10.2957 61.4245 10.2313C61.4731 10.209 61.5034 10.1845 61.5353 10.1821C62.8153 10.0852 62.817 10.0849 63.2059 11.2968C63.5693 12.4286 63.9286 13.5618 64.3283 14.815Z" fill="black"></path><path d="M130.953 10.1334C131.117 8.88558 131.117 8.88558 132.351 8.69653C132.351 9.16457 132.351 9.62748 132.351 10.1417C132.858 10.1417 133.321 10.1417 133.832 10.1417C133.832 10.5215 133.832 10.8498 133.832 11.2294C133.354 11.2294 132.89 11.2294 132.389 11.2294C132.389 12.3426 132.341 13.4093 132.406 14.469C132.449 15.1716 132.679 15.2644 133.707 15.2853C133.725 15.3162 133.761 15.3494 133.757 15.3779C133.718 15.6993 133.789 16.1427 133.606 16.3146C133.255 16.6444 131.998 16.5003 131.666 16.1018C131.381 15.7609 131.122 15.3043 131.079 14.876C130.981 13.905 131.023 12.9198 131.01 11.9403C131.007 11.7257 131.009 11.5109 131.009 11.2721C130.696 11.2505 130.431 11.2322 130.129 11.2113C130.129 10.8775 130.129 10.5614 130.129 10.1909C130.399 10.1721 130.662 10.1538 130.953 10.1334Z" fill="black"></path><path d="M97.7899 7.3844C98.2541 7.3844 98.6804 7.3844 99.1403 7.3844C99.1403 10.3657 99.1403 13.3105 99.1403 16.2925C98.6841 16.2925 98.2586 16.2925 97.7899 16.2925C97.7899 13.3311 97.7899 10.3851 97.7899 7.3844Z" fill="black"></path><path d="M79.398 7.40759C79.8626 7.40759 80.2752 7.40759 80.7258 7.40759C80.7258 10.3706 80.7258 13.3091 80.7258 16.2829C80.284 16.2829 79.8587 16.2829 79.398 16.2829C79.398 13.3293 79.398 10.3908 79.398 7.40759Z" fill="black"></path><path d="M76.9487 16.2862C76.4933 16.2862 76.0852 16.2862 75.643 16.2862C75.643 14.2546 75.643 12.255 75.643 10.2142C76.0788 10.2142 76.4986 10.2142 76.9487 10.2142C76.9487 12.2344 76.9487 14.2348 76.9487 16.2862Z" fill="black"></path><path d="M76.3056 9.18804C75.8034 9.18935 75.4662 8.87649 75.4578 8.40127C75.4495 7.9243 75.8397 7.54469 76.3263 7.55667C76.7932 7.56822 77.158 7.93737 77.1511 8.39147C77.1441 8.857 76.794 9.18684 76.3056 9.18804Z" fill="black"></path></svg>