<svg width="173" height="52" viewBox="0 0 173 52" fill="none" xmlns="http://www.w3.org/2000/svg"><rect x="0.25" y="0.25" width="172.5" height="51.5" rx="9.75" stroke="black" stroke-width="0.5"></rect><path d="M64.4012 32.0048C62.4929 32.0048 60.6698 32.0048 58.8186 32.0048C58.8186 31.2165 58.8186 30.4801 58.8186 29.7075C61.417 29.7075 64.0028 29.7075 66.6467 29.7075C66.8645 31.0863 66.802 32.4456 66.3765 33.7762C65.4423 36.6969 62.6261 38.7518 59.5522 38.8783C55.9821 39.0253 53.1771 37.6826 51.2972 34.6406C48.8895 30.7444 50.2398 25.7197 54.2725 23.2599C57.4629 21.314 61.5068 21.6339 64.3401 24.0548C64.4362 24.1369 64.5433 24.2061 64.6089 24.2546C64.0399 24.8525 63.5191 25.3997 62.979 25.9674C62.1035 25.2226 61.1547 24.6474 60.0099 24.4645C57.5042 24.0644 55.3896 24.7645 53.8834 26.8419C52.3593 28.944 52.2397 31.2471 53.5104 33.4886C54.7911 35.7478 56.8546 36.7326 59.4426 36.5138C61.4057 36.3477 62.9898 35.5118 63.8808 33.668C64.12 33.1727 64.217 32.6088 64.4012 32.0048Z" fill="black"></path><path d="M99.8301 29.2328C99.8301 28.8723 99.8301 28.6262 99.8301 28.3522C100.6 28.3522 101.333 28.3522 102.098 28.3522C102.108 28.4801 102.124 28.5842 102.124 28.6883C102.12 32.0432 102.139 35.3984 102.102 38.7531C102.075 41.2001 100.631 43.0506 98.4194 43.5969C95.8684 44.2269 93.3483 43.157 92.2207 40.9629C92.156 40.8372 92.1098 40.7021 92.0378 40.5304C92.7385 40.239 93.4184 39.9563 94.0931 39.6756C95.3897 41.4791 96.4702 41.9505 98.0368 41.4107C99.3356 40.9631 99.866 39.8658 99.7984 37.701C99.5695 37.8818 99.3754 38.0549 99.1624 38.2002C97.652 39.2303 95.5232 39.1395 93.8756 37.8988C92.0524 36.5257 91.2477 34.6682 91.7035 32.4133C92.1451 30.2286 93.4973 28.7738 95.6663 28.1704C97.1848 27.748 98.5599 28.0768 99.8301 29.2328ZM100.033 33.4567C99.9321 33.0002 99.8791 32.5264 99.7215 32.0905C99.2346 30.745 97.8852 29.9945 96.6009 30.2184C94.96 30.5044 93.7238 32.1381 94.1007 34.1688C94.3711 35.626 95.5204 36.6345 96.8353 36.7074C98.6507 36.8082 99.972 35.4445 100.033 33.4567Z" fill="black"></path><path d="M125.176 38.5259C124.317 38.5259 123.544 38.5259 122.745 38.5259C122.745 33.2084 122.745 27.9228 122.745 22.6007C122.929 22.5874 123.086 22.5662 123.243 22.566C125.001 22.5637 126.759 22.5572 128.517 22.5665C130.942 22.5793 133.091 24.1239 133.662 26.2511C134.436 29.1323 132.497 32.0319 129.452 32.427C128.31 32.5752 127.139 32.5037 125.982 32.5301C125.733 32.5358 125.484 32.531 125.176 32.531C125.176 33.5797 125.176 34.572 125.176 35.5641C125.176 36.5394 125.176 37.5145 125.176 38.5259ZM125.204 30.2782C125.421 30.2782 125.599 30.2789 125.777 30.2781C126.811 30.274 127.849 30.3272 128.877 30.251C130.233 30.1505 131.318 28.9868 131.392 27.6786C131.466 26.3764 130.514 25.0855 129.122 24.9261C127.841 24.7793 126.53 24.8949 125.204 24.8949C125.204 26.6548 125.204 28.4261 125.204 30.2782Z" fill="black"></path><path d="M145.959 32.2816C145.985 31.3242 145.471 30.6722 144.476 30.3299C143.217 29.8972 142.068 30.2434 141.276 31.3303C140.595 31.0492 139.901 30.7628 139.165 30.4591C139.386 29.7953 139.83 29.3319 140.343 28.9377C142.129 27.5654 145.272 27.6811 146.974 29.1547C147.8 29.8691 148.206 30.788 148.347 31.844C148.375 32.0583 148.363 32.2787 148.363 32.4963C148.364 34.4886 148.363 36.4808 148.363 38.5105C147.576 38.5105 146.826 38.5105 146.02 38.5105C146.02 38.1524 146.02 37.7986 146.02 37.3329C145.89 37.4511 145.836 37.4854 145.801 37.5331C144.358 39.4908 141.09 39.1478 139.688 37.5471C138.323 35.9881 138.645 33.6885 140.456 32.5745C142.012 31.6175 143.685 31.4835 145.414 32.0688C145.583 32.1262 145.748 32.1986 145.959 32.2816ZM143.893 33.6003C143.299 33.7617 142.689 33.8654 142.132 34.0961C141.535 34.3433 141.225 34.9477 141.299 35.492C141.384 36.1172 141.825 36.4209 142.37 36.5925C143.866 37.0638 145.56 36.1076 145.92 34.5759C145.952 34.4356 145.817 34.1404 145.698 34.0996C145.122 33.9026 144.525 33.7682 143.893 33.6003Z" fill="black"></path><path d="M90.6004 33.4644C90.5952 36.5459 88.2106 38.8937 85.0866 38.893C81.9726 38.8922 79.5746 36.5317 79.5658 33.4586C79.5569 30.3752 81.9759 27.9991 85.1187 28.0042C88.2328 28.0091 90.6056 30.3728 90.6004 33.4644ZM85.0664 36.7128C86.8006 36.7201 88.1575 35.313 88.1777 33.4867C88.1979 31.6522 86.8185 30.1681 85.0908 30.1655C83.3905 30.163 82.0177 31.6148 81.9987 33.4353C81.98 35.2419 83.3499 36.7056 85.0664 36.7128Z" fill="black"></path><path d="M73.0633 38.8926C69.9515 38.8751 67.5329 36.4917 67.5369 33.4466C67.541 30.3553 69.9956 27.9856 73.1745 28.004C76.2454 28.0219 78.6304 30.4508 78.6025 33.532C78.575 36.5597 76.1465 38.91 73.0633 38.8926ZM76.1385 33.4578C76.1402 31.602 74.8324 30.1838 73.1028 30.1655C71.3911 30.1474 70.0144 31.5897 70.0084 33.4072C70.0022 35.3012 71.3129 36.7129 73.0773 36.7127C74.825 36.7126 76.1369 35.3177 76.1385 33.4578Z" fill="black"></path><path d="M117.493 32.1062C115.045 33.1097 112.626 34.1015 110.207 35.0932C111.079 37.1673 113.568 37.2508 115.537 35.2458C116.128 35.6352 116.727 36.0301 117.428 36.4917C117.064 36.8766 116.76 37.2752 116.383 37.5852C114.627 39.0283 112.651 39.3014 110.585 38.4371C108.543 37.5834 107.464 35.9443 107.36 33.7477C107.252 31.4391 108.142 29.6004 110.266 28.5281C112.895 27.201 115.871 28.3645 117.114 31.1574C117.245 31.4505 117.353 31.7535 117.493 32.1062ZM114.607 31.2641C114.083 30.3037 112.982 29.9183 111.862 30.2624C110.576 30.658 109.67 31.9496 109.807 33.2393C111.412 32.5787 113.007 31.9226 114.607 31.2641Z" fill="black"></path><path d="M148.511 28.3234C149.329 28.3234 150.072 28.2997 150.812 28.3417C150.978 28.3512 151.206 28.5592 151.278 28.7296C152.131 30.7445 152.961 32.7696 153.798 34.7917C153.851 34.9197 153.911 35.0446 154.015 35.2748C154.408 34.3013 154.765 33.4194 155.119 32.5364C155.616 31.2952 156.13 30.0598 156.597 28.8071C156.743 28.4138 156.942 28.2927 157.347 28.3135C158.034 28.3487 158.723 28.3232 159.473 28.3232C159.42 28.4931 159.391 28.627 159.337 28.7498C157.252 33.4836 155.159 38.2142 153.086 42.9536C152.929 43.3138 152.744 43.4381 152.364 43.4203C151.719 43.3904 151.072 43.412 150.328 43.412C150.922 42.1057 151.394 40.8481 152.048 39.6943C152.709 38.5297 152.683 37.5412 152.08 36.33C150.841 33.8387 149.786 31.2554 148.656 28.7096C148.613 28.6127 148.581 28.5107 148.511 28.3234Z" fill="black"></path><path d="M137.539 38.5299C136.717 38.5299 135.944 38.5299 135.14 38.5299C135.14 33.2165 135.14 27.931 135.14 22.605C135.937 22.605 136.721 22.605 137.539 22.605C137.539 27.9124 137.539 33.1972 137.539 38.5299Z" fill="black"></path><path d="M106.178 38.5338C105.372 38.5338 104.599 38.5338 103.793 38.5338C103.793 33.2251 103.793 27.9402 103.793 22.61C104.572 22.61 105.356 22.61 106.178 22.61C106.178 27.903 106.178 33.1865 106.178 38.5338Z" fill="black"></path><path d="M94.6875 9.20703C95.4103 9.08148 95.9588 9.09705 96.3991 9.88327C97.2821 11.4598 98.3102 12.9549 99.2785 14.4835C99.362 14.6153 99.4473 14.746 99.6219 15.0174C99.6219 13.9278 99.6219 12.9974 99.6219 12.0671C99.6219 11.1261 99.6219 10.1851 99.6219 9.20224C99.9703 9.20224 100.286 9.20224 100.646 9.20224C100.646 11.7333 100.646 14.2761 100.646 16.815C99.9737 16.9946 99.5163 16.8567 99.1332 16.2025C98.1651 14.5486 97.1112 12.945 96.09 11.3223C95.9958 11.1727 95.8884 11.0315 95.7028 10.7654C95.7028 12.8731 95.7028 14.8478 95.7028 16.848C95.3364 16.848 95.0347 16.848 94.6875 16.848C94.6875 14.3029 94.6875 11.761 94.6875 9.20703Z" fill="black"></path><path d="M89.3256 9.00652C91.6436 9.01763 93.328 10.7507 93.308 13.1042C93.2888 15.352 91.5293 17.0922 89.2901 17.0778C87.0418 17.0632 85.2598 15.2558 85.2803 13.0112C85.3012 10.7345 87.0577 8.99563 89.3256 9.00652ZM92.2286 13.0501C92.2334 11.2844 91.0182 10.0128 89.3237 10.0106C87.6211 10.0085 86.3818 11.2834 86.3858 13.0332C86.3898 14.787 87.6227 16.0479 89.3279 16.0417C91.0047 16.0356 92.2238 14.7783 92.2286 13.0501Z" fill="black"></path><path d="M57.3764 10.2003C57.1327 10.4174 56.9053 10.6202 56.6416 10.8553C56.036 10.2016 55.2025 9.87576 54.296 10.0431C53.6822 10.1565 53.0378 10.4281 52.5455 10.8082C51.5274 11.5942 51.3013 13.2727 51.9286 14.4929C52.5307 15.6642 53.9658 16.2959 55.3024 15.9778C56.4995 15.693 57.2566 14.8478 57.2748 13.7193C56.3785 13.7193 55.4818 13.7193 54.5497 13.7193C54.5497 13.3812 54.5497 13.0996 54.5497 12.7753C55.791 12.7753 57.0322 12.7753 58.276 12.7753C58.7236 14.4551 57.7852 15.9657 56.4431 16.6515C54.0742 17.8617 51.1768 16.5039 50.5918 13.9099C50.1905 12.1309 51.0084 10.3496 52.6387 9.45205C54.0436 8.67867 56.0987 8.92238 57.1964 9.9938C57.2583 10.0543 57.3108 10.1245 57.3764 10.2003Z" fill="black"></path><path d="M59.8065 9.19043C61.3002 9.19043 62.7799 9.19043 64.3054 9.19043C64.3054 9.48205 64.3054 9.77803 64.3054 10.1437C63.1958 10.1437 62.0657 10.1437 60.8912 10.1437C60.8912 10.9591 60.8912 11.708 60.8912 12.5218C61.9048 12.5218 62.9271 12.5218 63.9811 12.5218C63.9811 12.8669 63.9811 13.1493 63.9811 13.5057C62.9679 13.5057 61.9473 13.5057 60.8869 13.5057C60.8869 14.3285 60.8869 15.0789 60.8869 15.8843C62.0159 15.8843 63.1492 15.8843 64.3162 15.8843C64.3162 16.2187 64.3162 16.5003 64.3162 16.8291C62.8385 16.8291 61.3462 16.8291 59.8065 16.8291C59.8065 14.304 59.8065 11.7625 59.8065 9.19043Z" fill="black"></path><path d="M70.6833 9.19873C70.6833 9.55656 70.6833 9.82379 70.6833 10.1586C69.9837 10.1586 69.3063 10.1586 68.5616 10.1586C68.5616 12.425 68.5616 14.6244 68.5616 16.8487C68.1913 16.8487 67.8889 16.8487 67.5214 16.8487C67.5214 14.6585 67.5214 12.4603 67.5214 10.1865C66.7668 10.1865 66.0723 10.1865 65.3499 10.1865C65.3499 9.8141 65.3499 9.51747 65.3499 9.19873C67.1407 9.19873 68.9022 9.19873 70.6833 9.19873Z" fill="black"></path><path d="M79.9416 10.1543C79.9416 12.4482 79.9416 14.6231 79.9416 16.8363C79.594 16.8363 79.2793 16.8363 78.9058 16.8363C78.9058 14.6413 78.9058 12.4545 78.9058 10.2012C78.1738 10.2012 77.4959 10.2012 76.7733 10.2012C76.7733 9.83836 76.7733 9.54107 76.7733 9.20154C78.5292 9.20154 80.2927 9.20154 82.0858 9.20154C82.0858 9.5047 82.0858 9.7886 82.0858 10.1543C81.3973 10.1543 80.7032 10.1543 79.9416 10.1543Z" fill="black"></path><path d="M75.5064 16.8537C75.1605 16.8537 74.8568 16.8537 74.518 16.8537C74.518 14.3047 74.518 11.7764 74.518 9.20398C74.8287 9.20398 75.1444 9.20398 75.5064 9.20398C75.5064 11.7272 75.5064 14.2683 75.5064 16.8537Z" fill="black"></path><path d="M13.6291 42.2931C13.1038 41.811 13.0067 41.1736 13.0056 40.5124C13 37.2111 13.0016 33.9098 13.0011 30.6085C13.0005 24.5136 12.9999 18.4188 12.9999 12.324C12.9999 11.6417 13.0908 10.9885 13.6186 10.4829C14.2119 11.067 14.8062 11.6499 15.3978 12.2356C19.1194 15.9199 22.8411 19.6038 26.5594 23.2913C26.789 23.5189 26.9604 23.8116 27.2085 24.0128C28.0972 24.7333 28.8584 25.5814 29.6563 26.3933C27.3269 28.7057 24.9982 31.0188 22.6679 33.3303C19.6556 36.3185 16.6421 39.3055 13.6291 42.2931Z" fill="#56D5FE"></path><path d="M29.6565 26.3933C28.8587 25.5814 28.0974 24.7333 27.2088 24.0127C26.9606 23.8116 26.7892 23.5189 26.5597 23.2913C22.8414 19.6038 19.1196 15.9198 15.398 12.2356C14.8064 11.6499 14.2121 11.067 13.6189 10.4829C14.2987 9.85926 15.0566 9.7581 16.0185 10.2555C17.1261 10.8283 18.2071 11.4528 19.2946 12.064C24.5119 14.9956 29.7274 17.9304 34.943 20.8649C35.0052 20.9 35.0614 20.9457 35.1203 20.9864C34.9335 21.1816 34.7504 21.3802 34.5596 21.5712C32.9539 23.1792 31.3467 24.7858 29.7401 26.3928C29.7124 26.3976 29.6844 26.3978 29.6565 26.3933Z" fill="#61F36E"></path><path d="M29.6568 26.3934C29.6847 26.3978 29.7126 26.3976 29.7406 26.3928C31.5459 28.1888 33.3512 29.9849 35.1564 31.7808C28.8594 35.3238 22.5638 38.8697 16.2638 42.4074C15.1686 43.0223 14.3054 42.9687 13.6297 42.2931C16.6427 39.3056 19.6562 36.3186 22.6686 33.3305C24.9986 31.0188 27.3274 28.7058 29.6568 26.3934Z" fill="#ED113A"></path><path d="M35.156 31.7807C33.3507 29.9847 31.5455 28.1887 29.7401 26.3928C31.3467 24.7858 32.9538 23.1793 34.5596 21.5712C34.7504 21.3802 34.9334 21.1815 35.1203 20.9865C35.7533 21.2648 36.2876 21.715 36.8963 22.0283C38.4552 22.8305 39.9786 23.6956 41.5036 24.5587C41.8056 24.7296 42.073 24.9393 42.3077 25.1948C42.9701 25.9163 42.9913 26.7995 42.3607 27.5431C42.1233 27.8231 41.833 28.0414 41.5174 28.2188C39.399 29.4099 37.2769 30.5942 35.156 31.7807Z" fill="#F6C100"></path></svg>